<svg xmlns="http://www.w3.org/2000/svg" xmlns:xlink="http://www.w3.org/1999/xlink" width="340" height="77" viewBox="0 0 340 77"><defs><clipPath id="a"><rect width="340" height="77" fill="none"/></clipPath></defs><g clip-path="url(#a)"><path d="M39.6,61.7c12.2,0,20.9-2.8,20.9-10.9S51.8,39.4,38.4,39.4A58.8,58.8,0,0,0,15,44L3.2,39.4l6-36.6H69.6V15.6H21.4l-2.9,18a51.2,51.2,0,0,1,25.7-6.5C61.2,27.1,77,34.8,77,51c0,13.2-12.1,24.2-37.4,24.2-16.8,0-30.4-5.8-39.6-15l9.8-9.3c5.1,4.9,15.8,10.8,29.8,10.8" fill="#fff6e8"/><path d="M131.4,16.2H78.2V2.8h72.7V13.3L111.7,73H93.4Z" fill="#fff6e8"/><path d="M197.4,26.8c0,6-5.2,9.3-13.4,9.3H158.6V2h23.5c8.2,0,13.4,3.2,13.4,8.7,0,3.9-2.6,7.3-7.7,7.6,5.4.3,9.6,3.1,9.6,8.5m-31.1-11h14.5c4.3,0,6.9-.7,6.9-3.8s-2.6-3.8-6.9-3.8H166.3Zm23.1,10.1c0-3.4-2.6-4.1-7-4.1H166.3V30h16.1c4.4,0,7-.7,7-4.1" fill="#fff6e8"/><path d="M231.8,21.1V31a11,11,0,0,0,1.2,5.1h-7.7a6.7,6.7,0,0,1-1-3.1h0c-2,2.2-6,4.2-11.2,4.2s-13.2-2.3-13.2-9.3,7.5-9.2,13.2-9.2,9.2,1.9,11.2,4.2V21.1c0-5-3.3-7.2-9.7-7.2a18.7,18.7,0,0,0-9.8,2.3l-2.3-5a32.1,32.1,0,0,1,13.6-3c9.9,0,15.8,4.6,15.8,12.9m-7.4,6.4c-2-3.2-6-3.9-9.5-3.9s-7.7.7-7.7,4.3,4.6,4.4,7.7,4.4,7.5-.9,9.5-4Z" fill="#fff6e8"/><path d="M238.2,36.2V9.2h7.6V14c2.2-3.6,6.6-5.7,11.7-5.7,8.1,0,12.3,5.1,12.3,12.3V36.2h-7.6V21.1c0-4.5-2.4-6.8-6.9-6.8s-7.3,1.8-9.5,5.7V36.2Z" fill="#fff6e8"/><path d="M289.9,24.1l-6.4,5.4v6.6H276V0h7.5V22.3L298,9.2h9L295.1,19.9l12.6,16.2h-8.3Z" fill="#fff6e8"/><path d="M194.9,65.5c0,6.8-6.4,11.5-18.5,11.5-8.7,0-15.7-2.5-20.9-6.9l4.5-5.4c4.2,3.9,9.6,5.7,16.6,5.7S187,69.1,187,66.2s-3.5-3.6-11.4-4.3c-9.8-.8-18.8-3-18.8-10.3s7.6-11,18.2-11c7.5,0,13.9,1.8,18.2,5.2l-4.3,5.4c-3.7-2.9-8.4-4-13.9-4.1s-10.3.8-10.3,3.9,4.8,3.2,11.6,3.8c10.9.8,18.6,3.1,18.6,10.6" fill="#fff6e8"/><path d="M220.2,74.4a17,17,0,0,1-8.8,2.5c-5.7,0-10.1-3.1-10.1-9.1V54.7h-4.9V49h5V42.8H209V49h11.1v5.7H209V66.5c0,2.7,2,4.2,4.7,4.2a11.2,11.2,0,0,0,5-1.5Z" fill="#fff6e8"/><path d="M224,75.9V49h7.5v5.6c2.2-4.1,6.9-6.2,12-6.2v6.5c-5.8,0-10.4,2.3-12,7.1V76Z" fill="#fff6e8"/><path d="M263.1,71.2a14.6,14.6,0,0,0,10.4-3.5l4.1,4.5c-3.8,3.3-8.6,4.8-14.8,4.8-11.1,0-17.5-5.6-17.5-14.6s6.4-14.5,17-14.5,16.3,4.9,16.3,14.5a11,11,0,0,1-.2,1.8H252.6c.7,4.8,4.4,7,10.6,7M252.9,59.4h18.4c-1.2-3.9-4.3-5.6-9-5.6s-8.3,1.9-9.4,5.7" fill="#fff6e8"/><path d="M299.2,71.2a14.5,14.5,0,0,0,10.3-3.5l4.1,4.5c-3.8,3.3-8.6,4.8-14.8,4.8-11.1,0-17.5-5.6-17.5-14.6s6.4-14.5,17-14.5,16.3,4.9,16.3,14.5a11,11,0,0,1-.2,1.8H288.6c.7,4.8,4.4,7,10.6,7M289,59.4h18.4c-1.2-3.9-4.3-5.6-9.1-5.6s-8.3,1.9-9.4,5.7" fill="#fff6e8"/><path d="M340,74.4a17,17,0,0,1-8.9,2.5c-5.6,0-10-3.1-10-9.1V54.7h-4.9V49h4.9V42.8h7.6V49h11.1v5.7H328.7V66.5c0,2.7,2.1,4.2,4.7,4.2a11.6,11.6,0,0,0,5.1-1.5Z" fill="#fff6e8"/></g></svg>