<svg xmlns="http://www.w3.org/2000/svg" xmlns:xlink="http://www.w3.org/1999/xlink" width="340" height="77" viewBox="0 0 340 77"><defs><clipPath id="a"><rect width="340" height="77" fill="none"/></clipPath></defs><g transform="translate(363 82.12)"><g transform="translate(-363 -82.12)" clip-path="url(#a)"><path d="M39.573,64.878c12.223,0,20.934-2.813,20.934-10.924S51.8,42.515,38.4,42.515A60.45,60.45,0,0,0,15.033,47.11L3.185,42.515,9.226,5.9H69.639V18.746H21.355L18.452,36.7a51.259,51.259,0,0,1,25.758-6.423c16.953,0,32.782,7.642,32.782,23.863,0,13.221-12.129,24.191-37.372,24.191C22.76,78.334,9.226,72.52,0,63.378l9.835-9.33c5.1,4.923,15.736,10.83,29.785,10.83" transform="translate(0 -3.134)" fill="#fff6e8"/><path d="M220.154,19.308H167V5.9h72.683V16.4l-39.2,59.728H182.174Z" transform="translate(-88.791 -3.134)" fill="#fff6e8"/><path d="M377.524,29c0,6.048-5.2,9.377-13.394,9.377H338.7V4.2h23.463c8.2,0,13.394,3.235,13.394,8.767,0,3.891-2.529,7.22-7.634,7.595,5.386.281,9.554,3.094,9.554,8.486m-31.1-10.971H360.9c4.262,0,6.884-.7,6.884-3.844s-2.623-3.844-6.884-3.844H346.38Zm23.088,10.08c0-3.469-2.576-4.126-6.978-4.126H346.38v8.2h16.11c4.4,0,6.978-.7,6.978-4.126" transform="translate(-180.08 -2.231)" fill="#fff6e8"/><path d="M458.739,30.393v9.939a10,10,0,0,0,1.218,5.11H452.23a6.661,6.661,0,0,1-.983-3.188h0c-2.061,2.25-5.994,4.219-11.193,4.219s-13.253-2.3-13.253-9.283,7.493-9.236,13.253-9.236,9.132,1.922,11.193,4.219V30.346c0-4.97-3.278-7.126-9.694-7.126a18.877,18.877,0,0,0-9.835,2.25l-2.248-4.97a31.655,31.655,0,0,1,13.581-3c9.835,0,15.736,4.548,15.736,12.893m-7.4,6.423c-2.014-3.188-5.994-3.938-9.46-3.938s-7.727.75-7.727,4.313,4.59,4.36,7.727,4.36,7.493-.844,9.46-3.985Z" transform="translate(-226.921 -9.296)" fill="#fff6e8"/><path d="M508.7,45.5V18.585h7.587V23.32c2.2-3.563,6.557-5.72,11.708-5.72,8.055,0,12.223,5.11,12.223,12.33V45.5h-7.587V30.4c0-4.407-2.341-6.8-6.837-6.8s-7.306,1.875-9.507,5.72V45.5Z" transform="translate(-270.466 -9.349)" fill="#fff6e8"/><path d="M603.209,24.1l-6.369,5.392v6.657H589.3V0h7.54V22.316l14.518-13.08H620.3L608.454,19.925l12.551,16.221h-8.336Z" transform="translate(-313.319)" fill="#fff6e8"/><path d="M371.386,111.488c0,6.751-6.416,11.439-18.5,11.439-8.664,0-15.689-2.438-20.887-6.892l4.5-5.345c4.215,3.844,9.6,5.673,16.578,5.673s10.443-1.313,10.443-4.173-3.512-3.61-11.38-4.313c-9.788-.844-18.826-3-18.826-10.314S340.945,86.5,351.482,86.5c7.493,0,13.909,1.875,18.265,5.251l-4.308,5.438c-3.747-2.907-8.383-4.079-13.956-4.126-4.636-.047-10.3.8-10.3,3.891s4.871,3.235,11.661,3.751c10.865.891,18.545,3.188,18.545,10.689" transform="translate(-176.518 -45.947)" fill="#fff6e8"/><path d="M443.237,122.8a16.472,16.472,0,0,1-8.851,2.579c-5.667,0-10.069-3.094-10.069-9.142V103.108H419.4V97.435h4.964V91.2h7.587v6.235h11.1v5.673h-11.1v11.814c0,2.719,2.061,4.173,4.73,4.173a11.74,11.74,0,0,0,5.011-1.406Z" transform="translate(-222.987 -48.443)" fill="#fff6e8"/><path d="M478.2,130.773V103.863h7.587v5.579c2.2-4.079,6.838-6.142,11.989-6.142v6.517c-5.854,0-10.4,2.3-11.989,7.032V130.82Z" transform="translate(-254.25 -54.87)" fill="#fff6e8"/><path d="M541.643,125.448a14.994,14.994,0,0,0,10.35-3.469l4.074,4.454c-3.747,3.329-8.57,4.782-14.8,4.782-11.1,0-17.468-5.579-17.468-14.534s6.369-14.58,16.953-14.58c9.741,0,16.3,4.97,16.3,14.534a5.252,5.252,0,0,1-.187,1.782H531.106c.7,4.829,4.355,7.032,10.584,7.032m-10.3-11.861,18.405-.094c-1.171-3.844-4.262-5.579-9.039-5.579s-8.289,1.875-9.366,5.673" transform="translate(-278.494 -54.233)" fill="#fff6e8"/><path d="M618.543,125.448a14.994,14.994,0,0,0,10.35-3.469l4.074,4.454c-3.746,3.329-8.57,4.782-14.8,4.782-11.1,0-17.468-5.579-17.468-14.534s6.369-14.58,16.953-14.58c9.741,0,16.3,4.97,16.3,14.534a5.258,5.258,0,0,1-.187,1.782H608.006c.7,4.829,4.356,7.032,10.584,7.032m-10.256-11.861,18.4-.094c-1.171-3.844-4.262-5.579-9.039-5.579s-8.289,1.875-9.366,5.673" transform="translate(-319.381 -54.233)" fill="#fff6e8"/><path d="M698.937,122.8a16.471,16.471,0,0,1-8.851,2.579c-5.667,0-10.069-3.094-10.069-9.142V103.108H675.1V97.435h4.964V91.2h7.587v6.235h11.1v5.673h-11.1v11.814c0,2.719,2.061,4.173,4.73,4.173a11.739,11.739,0,0,0,5.011-1.406Z" transform="translate(-358.938 -48.443)" fill="#fff6e8"/></g></g></svg>