<svg xmlns="http://www.w3.org/2000/svg" width="13" height="16" viewBox="0 0 13 16"><path d="M8.7,10H4.2a.8.8,0,0,1-.9-.9V4.4a.9.9,0,0,1,1-1h.6a.8.8,0,0,1,.9.9,2.1,2.1,0,0,1,0,.8v.3h2a.7.7,0,0,1,.8.7.7.7,0,0,1-.8.8H5.9V8H9.2a.9.9,0,0,1,1,.8,12.9,12.9,0,0,0,.4,1.9,17,17,0,0,0,.4,2.2v.2l1.1-.2c.3,0,.6,0,.7.3a.8.8,0,0,1,.1.9.9.9,0,0,1-.5.3l-2,.4c-.4.1-.8-.3-.9-.8l-.3-1.3c-.2-.8-.3-1.7-.5-2.5Z" fill="#fff"/><path d="M8.8,12.8l.3,1.5c0,.1,0,.2-.1.2A5.4,5.4,0,0,1,6,16,5.3,5.3,0,0,1,.1,11.7,5.1,5.1,0,0,1,2.7,6.4h.2a4.1,4.1,0,0,0,0,1.1.5.5,0,0,1-.3.5,3.9,3.9,0,0,0-1.1,4.2,4.1,4.1,0,0,0,3.6,2.6,3.9,3.9,0,0,0,3.6-1.9h.1Z" fill="#fff"/><path d="M4.6,0A1.6,1.6,0,0,1,6.2,1.6,1.6,1.6,0,0,1,4.6,3.2,1.7,1.7,0,0,1,2.9,1.6,1.7,1.7,0,0,1,4.6,0Z" fill="#fff"/></svg>