<svg xmlns="http://www.w3.org/2000/svg" width="175" height="18" viewBox="0 0 175 18"><g transform="translate(-383.532 -398.34)"><g transform="translate(383.532 398.402)"><path d="M383.532,407.631a8.631,8.631,0,0,1,8.764-8.969,8.319,8.319,0,0,1,7.985,5.615h-1.388a7.152,7.152,0,0,0-6.646-4.348,7.707,7.707,0,0,0,0,15.4,7.152,7.152,0,0,0,6.646-4.348h1.388A8.32,8.32,0,0,1,392.3,416.6,8.631,8.631,0,0,1,383.532,407.631Z" transform="translate(-383.532 -398.662)" fill="#28384c"/><path d="M517.609,407.631a8.755,8.755,0,1,1-8.74-8.969A8.684,8.684,0,0,1,517.609,407.631Zm-16.189,0a7.442,7.442,0,1,0,7.45-7.7A7.444,7.444,0,0,0,501.42,407.631Z" transform="translate(-477.596 -398.662)" fill="#28384c"/><path d="M739.472,401.317h-5.794v16.134h-1.29V401.317h-5.794v-1.268h12.879Z" transform="translate(-660.352 -399.781)" fill="#28384c"/><path d="M829.76,400.049h1.29v17.4h-1.29Z" transform="translate(-743.599 -399.781)" fill="#28384c"/><path d="M989.488,400.049v10.637c0,4.747-2.872,7.033-6.6,7.033s-6.6-2.286-6.6-7.033V400.049h1.314v10.562c0,4.026,2.313,5.84,5.283,5.84s5.283-1.814,5.283-5.84V400.049Z" transform="translate(-861.839 -399.781)" fill="#28384c"/><path d="M881.165,417.719V407.082c0-4.747,2.873-7.033,6.6-7.033s6.6,2.287,6.6,7.033v10.637h-1.315V407.157c0-4.026-2.313-5.84-5.283-5.84s-5.283,1.814-5.283,5.84v10.562Z" transform="translate(-785.079 -399.781)" fill="#28384c"/><path d="M625.479,417.719V407.082c0-4.747,2.873-7.033,6.6-7.033s6.6,2.287,6.6,7.033v10.637H637.36V407.157c0-4.026-2.313-5.84-5.283-5.84s-5.283,1.814-5.283,5.84v10.562Z" transform="translate(-578.762 -399.781)" fill="#28384c"/><path d="M1072.066,400.049v10.637c0,4.747-2.873,7.033-6.6,7.033s-6.6-2.286-6.6-7.033V400.049h1.314v10.562c0,4.026,2.313,5.84,5.283,5.84s5.283-1.814,5.283-5.84V400.049Z" transform="translate(-928.472 -399.781)" fill="#28384c"/></g><path d="M1219.881,416.01V405.373c0-4.747,2.873-7.033,6.6-7.033s6.6,2.286,6.6,7.033V416.01h-1.314V405.448c0-4.026-2.313-5.84-5.283-5.84s-5.283,1.814-5.283,5.84V416.01Z" transform="translate(-674.544 0)" fill="#28384c"/><path d="M1157.493,416.01V405.373c0-4.747,2.873-7.033,6.6-7.033s6.6,2.286,6.6,7.033V416.01h-1.314V405.448c0-4.026-2.313-5.84-5.283-5.84s-5.283,1.814-5.283,5.84V416.01Z" transform="translate(-624.202 0)" fill="#28384c"/></g></svg>