<svg xmlns="http://www.w3.org/2000/svg" width="175" height="18" viewBox="0 0 175 18"><path d="M0,9A8.6,8.6,0,0,1,8.3.1h.5a8.3,8.3,0,0,1,8,5.6H15.4A7.3,7.3,0,0,0,8.7,1.3,7.7,7.7,0,0,0,1.4,9.4a7.5,7.5,0,0,0,7.3,7.3,7.2,7.2,0,0,0,6.7-4.3h1.4a8.4,8.4,0,0,1-8,5.6A8.6,8.6,0,0,1,0,9.5Z" fill="#28384c"/><path d="M40,9A8.8,8.8,0,1,1,31.3.1,8.6,8.6,0,0,1,40,8.7ZM23.8,9a7.5,7.5,0,1,0,7.5-7.7,7.6,7.6,0,0,0-7.5,7.5Z" fill="#28384c"/><path d="M79.1,1.6H73.3V17.7H72V1.6H66.2V.3H79.1Z" fill="#28384c"/><path d="M86.2.3h1.3V17.7H86.2Z" fill="#28384c"/><path d="M127.7.3V11c0,4.7-2.9,7-6.6,7s-6.6-2.3-6.6-7V.3h1.3V10.9c0,4,2.3,5.8,5.3,5.8s5.2-1.8,5.2-5.8V.3Z" fill="#28384c"/><path d="M96.1,18V7.4c0-4.8,2.9-7.1,6.6-7.1s6.6,2.3,6.6,7.1V18H108V7.4c0-4-2.3-5.8-5.3-5.8s-5.3,1.8-5.3,5.8V18Z" fill="#28384c"/><path d="M46.7,18V7.4c0-4.8,2.9-7.1,6.6-7.1s6.6,2.3,6.6,7.1V18H58.6V7.4c0-4-2.3-5.8-5.3-5.8S48,3.4,48,7.4V18Z" fill="#28384c"/><path d="M143.6.3V11c0,4.7-2.9,7-6.6,7s-6.6-2.3-6.6-7V.3h1.3V10.9c0,4,2.3,5.8,5.3,5.8s5.3-1.8,5.3-5.8V.3Z" fill="#28384c"/><path d="M161.8,17.7V7c0-4.7,2.9-7,6.6-7S175,2.3,175,7V17.7h-1.3V7.1c0-4-2.3-5.8-5.3-5.8s-5.3,1.8-5.3,5.8V17.7Z" fill="#28384c"/><path d="M149.8,17.7V7c0-4.7,2.8-7,6.6-7S163,2.3,163,7V17.7h-1.3V7.1c0-4-2.4-5.8-5.3-5.8s-5.3,1.8-5.3,5.8V17.7Z" fill="#28384c"/></svg>