<svg xmlns="http://www.w3.org/2000/svg" width="35" height="11" viewBox="0 0 35 11"><path d="M35,10.7,33,7.4c0-.1,0-.1.1-.2a3,3,0,0,0,1.4-1.9A3.7,3.7,0,0,0,32.3.5h-.1A4.5,4.5,0,0,0,30.6.2H25.5V3.7h0A5.4,5.4,0,0,0,21.8.2L20.6,0h-1a5.9,5.9,0,0,0-3.3,1.5,5.2,5.2,0,0,0-1.5,2.7,5.2,5.2,0,0,0-.2,1.7c0,.1.1.2.1.4H13.4a.1.1,0,0,0-.1.1,1.9,1.9,0,0,1-1.6,1.4A2.1,2.1,0,0,1,9.1,6.2a2.5,2.5,0,0,1,.1-1.9,2.2,2.2,0,0,1,1.6-1.2,2.5,2.5,0,0,1,2,.7c.1.1.1.1.1,0L15,1.6c.1-.1.1-.1,0-.2A5.2,5.2,0,0,0,12.2.1H10.6A5.9,5.9,0,0,0,7.3,1.5a5.5,5.5,0,0,0-1.6,3,5,5,0,0,0,.4,3.2H3.4V.3H0V10.7c0,.1,0,.1.1.1H6l.3-.2,1.1-1,.3.3a5.5,5.5,0,0,0,2.5,1,5,5,0,0,0,2.7-.2,5,5,0,0,0,2.7-1.8h.1l.3.5a5.5,5.5,0,0,0,2.8,1.5,5,5,0,0,0,2.1.1,5.5,5.5,0,0,0,3.2-1.4,6.8,6.8,0,0,0,1.4-2.3h0v3.4c0,.1,0,.1.1.1h3a.1.1,0,0,0,.1-.1V8.1H30l1.5,2.6H35ZM6.2,8.1h0ZM21.9,6.8a1.9,1.9,0,0,1-1.5.9,1.9,1.9,0,0,1-1.6-.5,2.6,2.6,0,0,1-.7-1.5,3,3,0,0,1,.2-1.3,2,2,0,0,1,1.6-1.1,2,2,0,0,1,2.3,1.8c.1.1.1.2.1.4A2,2,0,0,1,21.9,6.8Zm8.7-1.3H28.7v-3H30a1.5,1.5,0,0,1,1.5,1.2,1.6,1.6,0,0,1-.9,1.8Z" fill="#fff"/></svg>