<svg xmlns="http://www.w3.org/2000/svg" width="35" height="11" viewBox="0 0 35 11"><path d="M34.968,10.691Q34,9.028,33.026,7.366c-.054-.093-.054-.092.036-.155a3.614,3.614,0,0,0,1.48-1.953A3.7,3.7,0,0,0,32.167.512,4.776,4.776,0,0,0,30.6.235c-1.67-.007-3.339,0-5.009-.009-.072,0-.071.033-.071.086q0,1.676,0,3.353v.079c-.025-.01-.024-.032-.03-.047A5.251,5.251,0,0,0,21.849.226,5.347,5.347,0,0,0,20.61.014c-.013,0-.031.006-.038-.014H19.83a.675.675,0,0,1-.207.028,5.524,5.524,0,0,0-3.334,1.515,5.315,5.315,0,0,0-1.527,2.679,5.668,5.668,0,0,0-.131,1.7c.007.11.019.219.031.328,0,.037-.006.051-.042.048a.26.26,0,0,0-.03,0c-.4,0-.791,0-1.187,0a.081.081,0,0,0-.092.067A2.117,2.117,0,0,1,11.72,7.832,2.22,2.22,0,0,1,9.056,6.216,2.616,2.616,0,0,1,9.2,4.348a2.059,2.059,0,0,1,1.637-1.212,2.181,2.181,0,0,1,1.935.631c.089.087.088.089.175,0l2.1-2.193c.07-.073.069-.073,0-.138A5.458,5.458,0,0,0,12.153.073a5.384,5.384,0,0,0-.538-.059c-.013,0-.031.006-.038-.014h-.742a.5.5,0,0,1-.192.027A5.516,5.516,0,0,0,7.3,1.544,5.256,5.256,0,0,0,5.721,4.463a5.669,5.669,0,0,0,.346,3.279c.009.021.016.042.023.063-.02,0-.039,0-.059,0H3.42c-.04,0-.061-.01-.057-.054,0-.022,0-.045,0-.067V.328c0-.1,0-.1-.1-.1H.094C0,.227,0,.227,0,.325Q0,5.5,0,10.669c0,.114-.015.1.1.1q2.957,0,5.915,0a.393.393,0,0,0,.314-.132c.342-.357.694-.706,1.042-1.058.114.092.225.186.341.275a5.458,5.458,0,0,0,2.44,1.051,5.86,5.86,0,0,0,2.748-.167A5.444,5.444,0,0,0,15.61,8.887l.059-.074c.12.155.239.3.37.444a5.375,5.375,0,0,0,2.789,1.591,5.888,5.888,0,0,0,2.107.1,5.5,5.5,0,0,0,3.15-1.493,5.387,5.387,0,0,0,1.4-2.21l.022-.063s0,0,.014,0v.079q0,1.71,0,3.42c0,.071.016.092.089.092q1.514,0,3.028,0c.072,0,.083-.024.083-.088,0-.855,0-1.71,0-2.565,0-.068.019-.081.082-.08.378,0,.757,0,1.135,0a.089.089,0,0,1,.092.054q.722,1.3,1.446,2.6a.128.128,0,0,0,.132.077q1.662,0,3.325,0c.024,0,.06.005.07-.008S34.981,10.713,34.968,10.691ZM6.211,8.051l.041.08ZM21.906,6.827a1.93,1.93,0,0,1-1.468.886,1.984,1.984,0,0,1-1.619-.524,2.2,2.2,0,0,1-.7-1.44A2.386,2.386,0,0,1,18.346,4.4a1.922,1.922,0,0,1,1.6-1.116,2.07,2.07,0,0,1,2.29,1.776,3.509,3.509,0,0,1,.039.422A2.38,2.38,0,0,1,21.906,6.827Zm8.653-1.335a2.006,2.006,0,0,1-.669.111c-.363,0-.727,0-1.09,0-.065,0-.087-.013-.087-.085,0-.495,0-.99,0-1.485s0-.995,0-1.492c0-.045,0-.072.06-.072.413,0,.826-.009,1.239.007A1.606,1.606,0,0,1,31.54,3.665,1.513,1.513,0,0,1,30.558,5.492Z" transform="translate(0)" fill="#fff"/></svg>